REM DIRINDEX 1\2\5,1\2\6,1\2\7,1\2\8,1\3\9,1\3\10,1\3\11,1\4\12,1\4\13,1\4\14,1\4\15,1\4\16
REM DIRNAME cjc034,folder01,folder02,folder03,folder04,folder05,folder06,folder07,folder08,folder09,folder10,folder11,folder12,folder13,folder14,folder15
TITLE ""
FILE "1200_sec04_1342_1349.mp3" MP3
  TRACK 01 AUDIO
    TITLE "0:"
    INDEX 01 00:00:00
  TRACK 02 AUDIO
    TITLE "12:cjc034_09096"
    INDEX 01 00:00:17
  TRACK 03 AUDIO
    TITLE "0:"
    INDEX 01 00:01:30
  TRACK 04 AUDIO
    TITLE "13:cjc034_09097"
    INDEX 01 00:01:62
  TRACK 05 AUDIO
    TITLE "0:"
    INDEX 01 00:04:62
  TRACK 06 AUDIO
    TITLE "14:cjc034_09098"
    INDEX 01 00:05:22
  TRACK 07 AUDIO
    TITLE "0:"
    INDEX 01 00:06:31
  TRACK 08 AUDIO
    TITLE "15:cjc034_09099"
    INDEX 01 00:06:63
  TRACK 09 AUDIO
    TITLE "0:"
    INDEX 01 00:11:05
  TRACK 10 AUDIO
    TITLE "12:cjc034_09100"
    INDEX 01 00:12:38
  TRACK 11 AUDIO
    TITLE "0:"
    INDEX 01 00:13:47
  TRACK 12 AUDIO
    TITLE "13:cjc034_09101"
    INDEX 01 00:14:07
  TRACK 13 AUDIO
    TITLE "0:"
    INDEX 01 00:16:71
  TRACK 14 AUDIO
    TITLE "14:cjc034_09102"
    INDEX 01 00:17:27
  TRACK 15 AUDIO
    TITLE "0:"
    INDEX 01 00:18:35
  TRACK 16 AUDIO
    TITLE "15:cjc034_09103"
    INDEX 01 00:18:72
  TRACK 17 AUDIO
    TITLE "0:"
    INDEX 01 00:23:71
  TRACK 18 AUDIO
    TITLE "12:cjc034_09104"
    INDEX 01 00:25:29
  TRACK 19 AUDIO
    TITLE "0:"
    INDEX 01 00:26:32
  TRACK 20 AUDIO
    TITLE "13:cjc034_09105"
    INDEX 01 00:26:64
  TRACK 21 AUDIO
    TITLE "0:"
    INDEX 01 00:29:74
  TRACK 22 AUDIO
    TITLE "14:cjc034_09106"
    INDEX 01 00:30:32
  TRACK 23 AUDIO
    TITLE "0:"
    INDEX 01 00:31:37
  TRACK 24 AUDIO
    TITLE "15:cjc034_09107"
    INDEX 01 00:31:67
  TRACK 25 AUDIO
    TITLE "0:"
    INDEX 01 00:35:23
  TRACK 26 AUDIO
    TITLE "12:cjc034_09108"
    INDEX 01 00:36:56
  TRACK 27 AUDIO
    TITLE "0:"
    INDEX 01 00:37:59
  TRACK 28 AUDIO
    TITLE "13:cjc034_09109"
    INDEX 01 00:38:18
  TRACK 29 AUDIO
    TITLE "0:"
    INDEX 01 00:43:44
  TRACK 30 AUDIO
    TITLE "14:cjc034_09110"
    INDEX 01 00:44:03
  TRACK 31 AUDIO
    TITLE "0:"
    INDEX 01 00:45:02
  TRACK 32 AUDIO
    TITLE "15:cjc034_09111"
    INDEX 01 00:45:39
  TRACK 33 AUDIO
    TITLE "0:"
    INDEX 01 00:48:57
  TRACK 34 AUDIO
    TITLE "12:cjc034_09112"
    INDEX 01 00:50:15
  TRACK 35 AUDIO
    TITLE "0:"
    INDEX 01 00:51:28
  TRACK 36 AUDIO
    TITLE "13:cjc034_09113"
    INDEX 01 00:51:60
  TRACK 37 AUDIO
    TITLE "0:"
    INDEX 01 00:55:18
  TRACK 38 AUDIO
    TITLE "14:cjc034_09114"
    INDEX 01 00:55:51
  TRACK 39 AUDIO
    TITLE "0:"
    INDEX 01 00:56:63
  TRACK 40 AUDIO
    TITLE "15:cjc034_09115"
    INDEX 01 00:57:21
  TRACK 41 AUDIO
    TITLE "0:"
    INDEX 01 01:01:09
  TRACK 42 AUDIO
    TITLE "16:cjc034_09116"
    INDEX 01 01:02:44
  TRACK 43 AUDIO
    TITLE "0:"
    INDEX 01 01:06:38
  TRACK 44 AUDIO
    TITLE "12:cjc034_09117"
    INDEX 01 01:07:41
  TRACK 45 AUDIO
    TITLE "0:"
    INDEX 01 01:08:72
  TRACK 46 AUDIO
    TITLE "13:cjc034_09118"
    INDEX 01 01:09:28
  TRACK 47 AUDIO
    TITLE "0:"
    INDEX 01 01:10:45
  TRACK 48 AUDIO
    TITLE "14:cjc034_09119"
    INDEX 01 01:11:02
  TRACK 49 AUDIO
    TITLE "0:"
    INDEX 01 01:12:32
  TRACK 50 AUDIO
    TITLE "15:cjc034_09120"
    INDEX 01 01:12:64
  TRACK 51 AUDIO
    TITLE "0:"
    INDEX 01 01:17:59
  TRACK 52 AUDIO
    TITLE "12:cjc034_09121"
    INDEX 01 01:19:15
  TRACK 53 AUDIO
    TITLE "0:"
    INDEX 01 01:20:51
  TRACK 54 AUDIO
    TITLE "13:cjc034_09122"
    INDEX 01 01:21:08
  TRACK 55 AUDIO
    TITLE "0:"
    INDEX 01 01:22:25
  TRACK 56 AUDIO
    TITLE "14:cjc034_09123"
    INDEX 01 01:22:56
  TRACK 57 AUDIO
    TITLE "0:"
    INDEX 01 01:24:16
  TRACK 58 AUDIO
    TITLE "15:cjc034_09124"
    INDEX 01 01:24:47
  TRACK 59 AUDIO
    TITLE "0:"
    INDEX 01 01:28:55
  TRACK 60 AUDIO
    TITLE "12:cjc034_09125"
    INDEX 01 01:30:17
  TRACK 61 AUDIO
    TITLE "0:"
    INDEX 01 01:31:38
  TRACK 62 AUDIO
    TITLE "13:cjc034_09126"
    INDEX 01 01:31:71
  TRACK 63 AUDIO
    TITLE "0:"
    INDEX 01 01:34:06
  TRACK 64 AUDIO
    TITLE "14:cjc034_09127"
    INDEX 01 01:34:42
  TRACK 65 AUDIO
    TITLE "0:"
    INDEX 01 01:35:61
  TRACK 66 AUDIO
    TITLE "15:cjc034_09128"
    INDEX 01 01:36:21
  TRACK 67 AUDIO
    TITLE "0:"
    INDEX 01 01:40:70
